<svg id="visual" viewBox="0 0 960 300" width="960" height="300" xmlns="http://www.w3.org/2000/svg" xmlns:xlink="http://www.w3.org/1999/xlink" version="1.1"><rect x="0" y="0" width="960" height="300" fill="#ECE3CE"></rect><path d="M0 199L16 204C32 209 64 219 96 223.8C128 228.7 160 228.3 192 214.3C224 200.3 256 172.7 288 170.2C320 167.7 352 190.3 384 200.7C416 211 448 209 480 203.7C512 198.3 544 189.7 576 189.8C608 190 640 199 672 198.5C704 198 736 188 768 189C800 190 832 202 864 192.3C896 182.7 928 151.3 944 135.7L960 120L960 0L944 0C928 0 896 0 864 0C832 0 800 0 768 0C736 0 704 0 672 0C640 0 608 0 576 0C544 0 512 0 480 0C448 0 416 0 384 0C352 0 320 0 288 0C256 0 224 0 192 0C160 0 128 0 96 0C64 0 32 0 16 0L0 0Z" fill="#ece3ce"></path><path d="M0 145L16 140.7C32 136.3 64 127.7 96 135.8C128 144 160 169 192 176.3C224 183.7 256 173.3 288 161.2C320 149 352 135 384 122.8C416 110.7 448 100.3 480 99.7C512 99 544 108 576 119.7C608 131.3 640 145.7 672 156.2C704 166.7 736 173.3 768 173.2C800 173 832 166 864 162.2C896 158.3 928 157.7 944 157.3L960 157L960 0L944 0C928 0 896 0 864 0C832 0 800 0 768 0C736 0 704 0 672 0C640 0 608 0 576 0C544 0 512 0 480 0C448 0 416 0 384 0C352 0 320 0 288 0C256 0 224 0 192 0C160 0 128 0 96 0C64 0 32 0 16 0L0 0Z" fill="#eccda7"></path><path d="M0 75L16 74.5C32 74 64 73 96 81.3C128 89.7 160 107.3 192 121.5C224 135.7 256 146.3 288 144.7C320 143 352 129 384 116.8C416 104.7 448 94.3 480 87.2C512 80 544 76 576 82.2C608 88.3 640 104.7 672 114.5C704 124.3 736 127.7 768 132C800 136.3 832 141.7 864 135.3C896 129 928 111 944 102L960 93L960 0L944 0C928 0 896 0 864 0C832 0 800 0 768 0C736 0 704 0 672 0C640 0 608 0 576 0C544 0 512 0 480 0C448 0 416 0 384 0C352 0 320 0 288 0C256 0 224 0 192 0C160 0 128 0 96 0C64 0 32 0 16 0L0 0Z" fill="#f0b386"></path><path d="M0 43L16 44C32 45 64 47 96 55.7C128 64.3 160 79.7 192 88C224 96.3 256 97.7 288 93.5C320 89.3 352 79.7 384 70.5C416 61.3 448 52.7 480 53.5C512 54.3 544 64.7 576 73C608 81.3 640 87.7 672 86.7C704 85.7 736 77.3 768 69C800 60.7 832 52.3 864 55.3C896 58.3 928 72.7 944 79.8L960 87L960 0L944 0C928 0 896 0 864 0C832 0 800 0 768 0C736 0 704 0 672 0C640 0 608 0 576 0C544 0 512 0 480 0C448 0 416 0 384 0C352 0 320 0 288 0C256 0 224 0 192 0C160 0 128 0 96 0C64 0 32 0 16 0L0 0Z" fill="#f69570"></path><path d="M0 42L16 46.8C32 51.7 64 61.3 96 59.8C128 58.3 160 45.7 192 45.5C224 45.3 256 57.7 288 61.5C320 65.3 352 60.7 384 59.2C416 57.7 448 59.3 480 53C512 46.7 544 32.3 576 28C608 23.7 640 29.3 672 33C704 36.7 736 38.3 768 39.7C800 41 832 42 864 37.8C896 33.7 928 24.3 944 19.7L960 15L960 0L944 0C928 0 896 0 864 0C832 0 800 0 768 0C736 0 704 0 672 0C640 0 608 0 576 0C544 0 512 0 480 0C448 0 416 0 384 0C352 0 320 0 288 0C256 0 224 0 192 0C160 0 128 0 96 0C64 0 32 0 16 0L0 0Z" fill="#fa7268"></path></svg>