<svg id="visual" viewBox="0 0 960 300" width="960" height="300" xmlns="http://www.w3.org/2000/svg" xmlns:xlink="http://www.w3.org/1999/xlink" version="1.1"><rect x="0" y="0" width="960" height="300" fill="#FA7268"></rect><path d="M0 190L22.8 195.5C45.7 201 91.3 212 137 214.8C182.7 217.7 228.3 212.3 274 205C319.7 197.7 365.3 188.3 411.2 192.3C457 196.3 503 213.7 548.8 211.8C594.7 210 640.3 189 686 185C731.7 181 777.3 194 823 206.8C868.7 219.7 914.3 232.3 937.2 238.7L960 245L960 0L937.2 0C914.3 0 868.7 0 823 0C777.3 0 731.7 0 686 0C640.3 0 594.7 0 548.8 0C503 0 457 0 411.2 0C365.3 0 319.7 0 274 0C228.3 0 182.7 0 137 0C91.3 0 45.7 0 22.8 0L0 0Z" fill="#fa7268"></path><path d="M0 191L22.8 194C45.7 197 91.3 203 137 203.2C182.7 203.3 228.3 197.7 274 190C319.7 182.3 365.3 172.7 411.2 173.3C457 174 503 185 548.8 179.7C594.7 174.3 640.3 152.7 686 153.3C731.7 154 777.3 177 823 178.2C868.7 179.3 914.3 158.7 937.2 148.3L960 138L960 0L937.2 0C914.3 0 868.7 0 823 0C777.3 0 731.7 0 686 0C640.3 0 594.7 0 548.8 0C503 0 457 0 411.2 0C365.3 0 319.7 0 274 0C228.3 0 182.7 0 137 0C91.3 0 45.7 0 22.8 0L0 0Z" fill="#fe9084"></path><path d="M0 119L22.8 127.7C45.7 136.3 91.3 153.7 137 162C182.7 170.3 228.3 169.7 274 167.2C319.7 164.7 365.3 160.3 411.2 154.8C457 149.3 503 142.7 548.8 141.5C594.7 140.3 640.3 144.7 686 147.2C731.7 149.7 777.3 150.3 823 148.7C868.7 147 914.3 143 937.2 141L960 139L960 0L937.2 0C914.3 0 868.7 0 823 0C777.3 0 731.7 0 686 0C640.3 0 594.7 0 548.8 0C503 0 457 0 411.2 0C365.3 0 319.7 0 274 0C228.3 0 182.7 0 137 0C91.3 0 45.7 0 22.8 0L0 0Z" fill="#ffaca2"></path><path d="M0 91L22.8 92.3C45.7 93.7 91.3 96.3 137 100.3C182.7 104.3 228.3 109.7 274 107.2C319.7 104.7 365.3 94.3 411.2 97.8C457 101.3 503 118.7 548.8 126C594.7 133.3 640.3 130.7 686 129.3C731.7 128 777.3 128 823 122.8C868.7 117.7 914.3 107.3 937.2 102.2L960 97L960 0L937.2 0C914.3 0 868.7 0 823 0C777.3 0 731.7 0 686 0C640.3 0 594.7 0 548.8 0C503 0 457 0 411.2 0C365.3 0 319.7 0 274 0C228.3 0 182.7 0 137 0C91.3 0 45.7 0 22.8 0L0 0Z" fill="#ffc8c0"></path><path d="M0 97L22.8 92.8C45.7 88.7 91.3 80.3 137 79C182.7 77.7 228.3 83.3 274 86.5C319.7 89.7 365.3 90.3 411.2 84.8C457 79.3 503 67.7 548.8 60.7C594.7 53.7 640.3 51.3 686 56C731.7 60.7 777.3 72.3 823 78.5C868.7 84.7 914.3 85.3 937.2 85.7L960 86L960 0L937.2 0C914.3 0 868.7 0 823 0C777.3 0 731.7 0 686 0C640.3 0 594.7 0 548.8 0C503 0 457 0 411.2 0C365.3 0 319.7 0 274 0C228.3 0 182.7 0 137 0C91.3 0 45.7 0 22.8 0L0 0Z" fill="#ffe3df"></path><path d="M0 40L22.8 42.5C45.7 45 91.3 50 137 52.3C182.7 54.7 228.3 54.3 274 55.3C319.7 56.3 365.3 58.7 411.2 55.3C457 52 503 43 548.8 42.5C594.7 42 640.3 50 686 52.2C731.7 54.3 777.3 50.7 823 48.7C868.7 46.7 914.3 46.3 937.2 46.2L960 46L960 0L937.2 0C914.3 0 868.7 0 823 0C777.3 0 731.7 0 686 0C640.3 0 594.7 0 548.8 0C503 0 457 0 411.2 0C365.3 0 319.7 0 274 0C228.3 0 182.7 0 137 0C91.3 0 45.7 0 22.8 0L0 0Z" fill="#ffffff"></path></svg>