<svg id="visual" viewBox="0 0 960 300" width="960" height="300" xmlns="http://www.w3.org/2000/svg" xmlns:xlink="http://www.w3.org/1999/xlink" version="1.1"><rect x="0" y="0" width="960" height="300" fill="#F4CE14"></rect><path d="M0 221L16 226.5C32 232 64 243 96 248.3C128 253.7 160 253.3 192 237.8C224 222.3 256 191.7 288 189C320 186.3 352 211.7 384 223.2C416 234.7 448 232.3 480 226.3C512 220.3 544 210.7 576 210.8C608 211 640 221 672 220.5C704 220 736 209 768 210.2C800 211.3 832 224.7 864 213.8C896 203 928 168 944 150.5L960 133L960 0L944 0C928 0 896 0 864 0C832 0 800 0 768 0C736 0 704 0 672 0C640 0 608 0 576 0C544 0 512 0 480 0C448 0 416 0 384 0C352 0 320 0 288 0C256 0 224 0 192 0C160 0 128 0 96 0C64 0 32 0 16 0L0 0Z" fill="#f4ce14"></path><path d="M0 161L16 156.2C32 151.3 64 141.7 96 150.7C128 159.7 160 187.3 192 195.5C224 203.7 256 192.3 288 179C320 165.7 352 150.3 384 136.8C416 123.3 448 111.7 480 110.8C512 110 544 120 576 133C608 146 640 162 672 173.8C704 185.7 736 193.3 768 193.2C800 193 832 185 864 180.5C896 176 928 175 944 174.5L960 174L960 0L944 0C928 0 896 0 864 0C832 0 800 0 768 0C736 0 704 0 672 0C640 0 608 0 576 0C544 0 512 0 480 0C448 0 416 0 384 0C352 0 320 0 288 0C256 0 224 0 192 0C160 0 128 0 96 0C64 0 32 0 16 0L0 0Z" fill="#f5d355"></path><path d="M0 84L16 83.5C32 83 64 82 96 91.2C128 100.3 160 119.7 192 135.2C224 150.7 256 162.3 288 160.5C320 158.7 352 143.3 384 130C416 116.7 448 105.3 480 97.3C512 89.3 544 84.7 576 91.5C608 98.3 640 116.7 672 127.7C704 138.7 736 142.3 768 147.2C800 152 832 158 864 150.8C896 143.7 928 123.3 944 113.2L960 103L960 0L944 0C928 0 896 0 864 0C832 0 800 0 768 0C736 0 704 0 672 0C640 0 608 0 576 0C544 0 512 0 480 0C448 0 416 0 384 0C352 0 320 0 288 0C256 0 224 0 192 0C160 0 128 0 96 0C64 0 32 0 16 0L0 0Z" fill="#f5d880"></path><path d="M0 48L16 49.2C32 50.3 64 52.7 96 62.3C128 72 160 89 192 98.2C224 107.3 256 108.7 288 104C320 99.3 352 88.7 384 78.5C416 68.3 448 58.7 480 59.7C512 60.7 544 72.3 576 81.5C608 90.7 640 97.3 672 96.2C704 95 736 86 768 76.8C800 67.7 832 58.3 864 61.7C896 65 928 81 944 89L960 97L960 0L944 0C928 0 896 0 864 0C832 0 800 0 768 0C736 0 704 0 672 0C640 0 608 0 576 0C544 0 512 0 480 0C448 0 416 0 384 0C352 0 320 0 288 0C256 0 224 0 192 0C160 0 128 0 96 0C64 0 32 0 16 0L0 0Z" fill="#f2dda7"></path><path d="M0 47L16 52.3C32 57.7 64 68.3 96 66.7C128 65 160 51 192 50.8C224 50.7 256 64.3 288 68.7C320 73 352 68 384 66.3C416 64.7 448 66.3 480 59.2C512 52 544 36 576 31.2C608 26.3 640 32.7 672 36.7C704 40.7 736 42.3 768 43.8C800 45.3 832 46.7 864 42.2C896 37.7 928 27.3 944 22.2L960 17L960 0L944 0C928 0 896 0 864 0C832 0 800 0 768 0C736 0 704 0 672 0C640 0 608 0 576 0C544 0 512 0 480 0C448 0 416 0 384 0C352 0 320 0 288 0C256 0 224 0 192 0C160 0 128 0 96 0C64 0 32 0 16 0L0 0Z" fill="#ece3ce"></path></svg>